<svg xmlns="http://www.w3.org/2000/svg" xmlns:xlink="http://www.w3.org/1999/xlink" viewBox="0 0 1024 1024" width="1024" height="1024">
  <defs>
    <radialGradient id="bg" cx="50%" cy="42%" r="72%">
      <stop offset="0" stop-color="#ffffff"/>
      <stop offset="0.7" stop-color="#f5f4f1"/>
      <stop offset="1" stop-color="#e6e4df"/>
    </radialGradient>

    <linearGradient id="bar" x1="0" y1="0" x2="0" y2="1">
      <stop offset="0" stop-color="#2a2a2c"/>
      <stop offset="0.45" stop-color="#0e0e10"/>
      <stop offset="1" stop-color="#000000"/>
    </linearGradient>

    <linearGradient id="topGloss" x1="0" y1="0" x2="0" y2="1">
      <stop offset="0" stop-color="#ffffff" stop-opacity="0.55"/>
      <stop offset="0.55" stop-color="#ffffff" stop-opacity="0.22"/>
      <stop offset="1" stop-color="#ffffff" stop-opacity="0"/>
    </linearGradient>

    <filter id="cast" x="-20%" y="-20%" width="140%" height="160%">
      <feGaussianBlur stdDeviation="9"/>
    </filter>

    <clipPath id="clipTL"><path d="M 252 390 L 252 332 A 80 80 0 0 1 332 252 L 390 252 A 28 28 0 0 1 390 308 L 332 308 A 24 24 0 0 0 308 332 L 308 390 A 28 28 0 0 1 252 390 Z"/></clipPath>
    <clipPath id="clipTR"><path d="M 772 390 L 772 332 A 80 80 0 0 0 692 252 L 634 252 A 28 28 0 0 0 634 308 L 692 308 A 24 24 0 0 1 716 332 L 716 390 A 28 28 0 0 0 772 390 Z"/></clipPath>
    <clipPath id="clipBR"><path d="M 772 634 L 772 692 A 80 80 0 0 1 692 772 L 634 772 A 28 28 0 0 1 634 716 L 692 716 A 24 24 0 0 0 716 692 L 716 634 A 28 28 0 0 1 772 634 Z"/></clipPath>
    <clipPath id="clipBL"><path d="M 252 634 L 252 692 A 80 80 0 0 0 332 772 L 390 772 A 28 28 0 0 0 390 716 L 332 716 A 24 24 0 0 1 308 692 L 308 634 A 28 28 0 0 0 252 634 Z"/></clipPath>
  </defs>

  <rect width="1024" height="1024" fill="url(#bg)"/>

  <g opacity="0.20" filter="url(#cast)">
    <path d="M 257 402 L 257 344 A 80 80 0 0 1 337 264 L 395 264 A 28 28 0 0 1 395 320 L 337 320 A 24 24 0 0 0 313 344 L 313 402 A 28 28 0 0 1 257 402 Z" fill="#000"/>
    <path d="M 777 402 L 777 344 A 80 80 0 0 0 697 264 L 639 264 A 28 28 0 0 0 639 320 L 697 320 A 24 24 0 0 1 721 344 L 721 402 A 28 28 0 0 0 777 402 Z" fill="#000"/>
    <path d="M 777 646 L 777 704 A 80 80 0 0 1 697 784 L 639 784 A 28 28 0 0 1 639 728 L 697 728 A 24 24 0 0 0 721 704 L 721 646 A 28 28 0 0 1 777 646 Z" fill="#000"/>
    <path d="M 257 646 L 257 704 A 80 80 0 0 0 337 784 L 395 784 A 28 28 0 0 0 395 728 L 337 728 A 24 24 0 0 1 313 704 L 313 646 A 28 28 0 0 0 257 646 Z" fill="#000"/>
  </g>

  <g fill="url(#bar)">
    <path d="M 252 390 L 252 332 A 80 80 0 0 1 332 252 L 390 252 A 28 28 0 0 1 390 308 L 332 308 A 24 24 0 0 0 308 332 L 308 390 A 28 28 0 0 1 252 390 Z"/>
    <path d="M 772 390 L 772 332 A 80 80 0 0 0 692 252 L 634 252 A 28 28 0 0 0 634 308 L 692 308 A 24 24 0 0 1 716 332 L 716 390 A 28 28 0 0 0 772 390 Z"/>
    <path d="M 772 634 L 772 692 A 80 80 0 0 1 692 772 L 634 772 A 28 28 0 0 1 634 716 L 692 716 A 24 24 0 0 0 716 692 L 716 634 A 28 28 0 0 1 772 634 Z"/>
    <path d="M 252 634 L 252 692 A 80 80 0 0 0 332 772 L 390 772 A 28 28 0 0 0 390 716 L 332 716 A 24 24 0 0 1 308 692 L 308 634 A 28 28 0 0 0 252 634 Z"/>
  </g>

  <g fill="url(#topGloss)">
    <rect x="252" y="252" width="170" height="80" clip-path="url(#clipTL)"/>
    <rect x="602" y="252" width="170" height="80" clip-path="url(#clipTR)"/>
    <rect x="716" y="606" width="56" height="110" clip-path="url(#clipBR)"/>
    <rect x="252" y="606" width="56" height="110" clip-path="url(#clipBL)"/>
  </g>

  <g fill="#000" fill-opacity="0.35">
    <rect x="260" y="398" width="40" height="12" rx="6" clip-path="url(#clipTL)"/>
    <rect x="724" y="398" width="40" height="12" rx="6" clip-path="url(#clipTR)"/>
    <rect x="649" y="758" width="80" height="12" rx="6" clip-path="url(#clipBR)"/>
    <rect x="295" y="758" width="80" height="12" rx="6" clip-path="url(#clipBL)"/>
  </g>
</svg>
