<svg xmlns="http://www.w3.org/2000/svg" viewBox="0 0 1024 1024">
  <defs>
    <linearGradient id="bg" x1="0" y1="0" x2="0" y2="1024" gradientUnits="userSpaceOnUse">
      <stop offset="0" stop-color="#F6F6FA"/>
      <stop offset="1" stop-color="#D6D6E0"/>
    </linearGradient>
    <linearGradient id="bgHi" x1="0" y1="0" x2="0" y2="520" gradientUnits="userSpaceOnUse">
      <stop offset="0" stop-color="#FFFFFF" stop-opacity="0.95"/>
      <stop offset="1" stop-color="#FFFFFF" stop-opacity="0"/>
    </linearGradient>
    <linearGradient id="glass" x1="0" y1="312" x2="0" y2="712" gradientUnits="userSpaceOnUse">
      <stop offset="0" stop-color="#FFFFFF" stop-opacity="0.90"/>
      <stop offset="0.45" stop-color="#EBEEF4" stop-opacity="0.70"/>
      <stop offset="1" stop-color="#D2D6E0" stop-opacity="0.55"/>
    </linearGradient>
    <linearGradient id="glassHi" x1="0" y1="332" x2="0" y2="520" gradientUnits="userSpaceOnUse">
      <stop offset="0" stop-color="#FFFFFF" stop-opacity="0.80"/>
      <stop offset="1" stop-color="#FFFFFF" stop-opacity="0"/>
    </linearGradient>
    <linearGradient id="glassRim" x1="0" y1="0" x2="0" y2="1">
      <stop offset="0" stop-color="#FFFFFF" stop-opacity="0.95"/>
      <stop offset="0.45" stop-color="#FFFFFF" stop-opacity="0.04"/>
      <stop offset="1" stop-color="#0A0810" stop-opacity="0.18"/>
    </linearGradient>
    <linearGradient id="glare" x1="262" y1="332" x2="500" y2="540" gradientUnits="userSpaceOnUse">
      <stop offset="0" stop-color="#FFFFFF" stop-opacity="0.45"/>
      <stop offset="0.6" stop-color="#FFFFFF" stop-opacity="0"/>
    </linearGradient>
    <linearGradient id="bracket" x1="0" y1="0" x2="0" y2="1">
      <stop offset="0" stop-color="#2A2733"/>
      <stop offset="1" stop-color="#0A080F"/>
    </linearGradient>
    <radialGradient id="shadow" cx="512" cy="760" r="300" gradientUnits="userSpaceOnUse">
      <stop offset="0.4" stop-color="#0A0810" stop-opacity="0.20"/>
      <stop offset="1" stop-color="#0A0810" stop-opacity="0"/>
    </radialGradient>
  </defs>

  <rect width="1024" height="1024" rx="224" fill="url(#bg)"/>
  <rect width="1024" height="520" rx="224" fill="url(#bgHi)"/>

  <ellipse cx="512" cy="746" rx="290" ry="34" fill="url(#shadow)"/>

  <rect x="262" y="332" width="500" height="360" rx="42" fill="url(#glass)"/>
  <rect x="262" y="332" width="500" height="200" rx="42" fill="url(#glassHi)"/>
  <path d="M 304 332 L 540 332 L 304 568 Z" fill="url(#glare)" opacity="0.55"/>
  <rect x="263" y="333" width="498" height="358" rx="41" fill="none" stroke="url(#glassRim)" stroke-width="2"/>

  <g stroke="url(#bracket)" stroke-width="34" stroke-linecap="round" stroke-linejoin="round" fill="none">
    <polyline points="242,406 242,312 336,312"/>
    <polyline points="688,312 782,312 782,406"/>
    <polyline points="782,618 782,712 688,712"/>
    <polyline points="336,712 242,712 242,618"/>
  </g>
</svg>
